<svg version="1.1" viewBox="0.0 0.0 600.0 371.0" fill="none" stroke="none" stroke-linecap="square" stroke-miterlimit="10" width="600" height="371" xmlns:xlink="http://www.w3.org/1999/xlink" xmlns="http://www.w3.org/2000/svg"><path fill="#ffffff" d="M0 0L600.0 0L600.0 371.0L0 371.0L0 0Z" fill-rule="nonzero"/><path stroke="#333333" stroke-width="1.0" stroke-linecap="butt" d="M45.5 332.5L581.5 332.5" fill-rule="nonzero"/><path stroke="#cccccc" stroke-width="1.0" stroke-linecap="butt" d="M45.5 283.5L581.5 283.5" fill-rule="nonzero"/><path stroke="#cccccc" stroke-width="1.0" stroke-linecap="butt" d="M45.5 234.5L581.5 234.5" fill-rule="nonzero"/><path stroke="#cccccc" stroke-width="1.0" stroke-linecap="butt" d="M45.5 185.5L581.5 185.5" fill-rule="nonzero"/><path stroke="#cccccc" stroke-width="1.0" stroke-linecap="butt" d="M45.5 137.5L581.5 137.5" fill-rule="nonzero"/><path stroke="#cccccc" stroke-width="1.0" stroke-linecap="butt" d="M45.5 88.5L581.5 88.5" fill-rule="nonzero"/><clipPath id="id_0"><path d="M45.55 88.28333L581.45 88.28333L581.45 332.45L45.55 332.45L45.55 88.28333Z" clip-rule="nonzero"/></clipPath><path stroke="#000000" stroke-width="2.0" stroke-linecap="butt" stroke-opacity="0.0" clip-path="url(#id_0)" d="M93.0 332.0L77.0 332.0L77.0 139.0C77.0 137.89543 77.89543 137.0 79.0 137.0L91.0 137.0C92.10457 137.0 93.0 137.89543 93.0 139.0Z" fill-rule="nonzero"/><path fill="#4285f4" clip-path="url(#id_0)" d="M93.0 332.0L77.0 332.0L77.0 139.0C77.0 137.89543 77.89543 137.0 79.0 137.0L91.0 137.0C92.10457 137.0 93.0 137.89543 93.0 139.0Z" fill-rule="nonzero"/><path stroke="#000000" stroke-width="2.0" stroke-linecap="butt" stroke-opacity="0.0" clip-path="url(#id_0)" d="M177.0 332.0L161.0 332.0L161.0 139.0C161.0 137.89543 161.89543 137.0 163.0 137.0L175.0 137.0C176.10457 137.0 177.0 137.89543 177.0 139.0Z" fill-rule="nonzero"/><path fill="#4285f4" clip-path="url(#id_0)" d="M177.0 332.0L161.0 332.0L161.0 139.0C161.0 137.89543 161.89543 137.0 163.0 137.0L175.0 137.0C176.10457 137.0 177.0 137.89543 177.0 139.0Z" fill-rule="nonzero"/><path stroke="#000000" stroke-width="2.0" stroke-linecap="butt" stroke-opacity="0.0" clip-path="url(#id_0)" d="M261.0 332.0L245.0 332.0L245.0 139.0C245.0 137.89543 245.89543 137.0 247.0 137.0L259.0 137.0C260.10458 137.0 261.0 137.89543 261.0 139.0Z" fill-rule="nonzero"/><path fill="#4285f4" clip-path="url(#id_0)" d="M261.0 332.0L245.0 332.0L245.0 139.0C245.0 137.89543 245.89543 137.0 247.0 137.0L259.0 137.0C260.10458 137.0 261.0 137.89543 261.0 139.0Z" fill-rule="nonzero"/><path stroke="#000000" stroke-width="2.0" stroke-linecap="butt" stroke-opacity="0.0" clip-path="url(#id_0)" d="M346.0 332.0L330.0 332.0L330.0 139.0C330.0 137.89543 330.89542 137.0 332.0 137.0L344.0 137.0C345.10458 137.0 346.0 137.89543 346.0 139.0Z" fill-rule="nonzero"/><path fill="#4285f4" clip-path="url(#id_0)" d="M346.0 332.0L330.0 332.0L330.0 139.0C330.0 137.89543 330.89542 137.0 332.0 137.0L344.0 137.0C345.10458 137.0 346.0 137.89543 346.0 139.0Z" fill-rule="nonzero"/><path stroke="#000000" stroke-width="2.0" stroke-linecap="butt" stroke-opacity="0.0" clip-path="url(#id_0)" d="M430.0 332.0L414.0 332.0L414.0 139.0C414.0 137.89543 414.89542 137.0 416.0 137.0L428.0 137.0C429.10458 137.0 430.0 137.89543 430.0 139.0Z" fill-rule="nonzero"/><path fill="#4285f4" clip-path="url(#id_0)" d="M430.0 332.0L414.0 332.0L414.0 139.0C414.0 137.89543 414.89542 137.0 416.0 137.0L428.0 137.0C429.10458 137.0 430.0 137.89543 430.0 139.0Z" fill-rule="nonzero"/><path stroke="#000000" stroke-width="2.0" stroke-linecap="butt" stroke-opacity="0.0" clip-path="url(#id_0)" d="M514.0 332.0L498.0 332.0L498.0 139.0C498.0 137.89543 498.89542 137.0 500.0 137.0L512.0 137.0C513.10455 137.0 514.0 137.89543 514.0 139.0Z" fill-rule="nonzero"/><path fill="#4285f4" clip-path="url(#id_0)" d="M514.0 332.0L498.0 332.0L498.0 139.0C498.0 137.89543 498.89542 137.0 500.0 137.0L512.0 137.0C513.10455 137.0 514.0 137.89543 514.0 139.0Z" fill-rule="nonzero"/><path stroke="#000000" stroke-width="2.0" stroke-linecap="butt" stroke-opacity="0.0" clip-path="url(#id_0)" d="M111.0 332.0L95.0 332.0L95.0 137.0C95.0 135.89543 95.89543 135.0 97.0 135.0L109.0 135.0C110.10457 135.0 111.0 135.89543 111.0 137.0Z" fill-rule="nonzero"/><path fill="#ea4335" clip-path="url(#id_0)" d="M111.0 332.0L95.0 332.0L95.0 137.0C95.0 135.89543 95.89543 135.0 97.0 135.0L109.0 135.0C110.10457 135.0 111.0 135.89543 111.0 137.0Z" fill-rule="nonzero"/><path stroke="#000000" stroke-width="2.0" stroke-linecap="butt" stroke-opacity="0.0" clip-path="url(#id_0)" d="M195.0 332.0L179.0 332.0L179.0 114.0C179.0 112.89543 179.89543 112.0 181.0 112.0L193.0 112.0C194.10457 112.0 195.0 112.89543 195.0 114.0Z" fill-rule="nonzero"/><path fill="#ea4335" clip-path="url(#id_0)" d="M195.0 332.0L179.0 332.0L179.0 114.0C179.0 112.89543 179.89543 112.0 181.0 112.0L193.0 112.0C194.10457 112.0 195.0 112.89543 195.0 114.0Z" fill-rule="nonzero"/><path stroke="#000000" stroke-width="2.0" stroke-linecap="butt" stroke-opacity="0.0" clip-path="url(#id_0)" d="M279.0 332.0L263.0 332.0L263.0 131.0C263.0 129.89543 263.89542 129.0 265.0 129.0L277.0 129.0C278.10458 129.0 279.0 129.89543 279.0 131.0Z" fill-rule="nonzero"/><path fill="#ea4335" clip-path="url(#id_0)" d="M279.0 332.0L263.0 332.0L263.0 131.0C263.0 129.89543 263.89542 129.0 265.0 129.0L277.0 129.0C278.10458 129.0 279.0 129.89543 279.0 131.0Z" fill-rule="nonzero"/><path stroke="#000000" stroke-width="2.0" stroke-linecap="butt" stroke-opacity="0.0" clip-path="url(#id_0)" d="M364.0 332.0L348.0 332.0L348.0 127.0C348.0 125.89543 348.89542 125.0 350.0 125.0L362.0 125.0C363.10458 125.0 364.0 125.89543 364.0 127.0Z" fill-rule="nonzero"/><path fill="#ea4335" clip-path="url(#id_0)" d="M364.0 332.0L348.0 332.0L348.0 127.0C348.0 125.89543 348.89542 125.0 350.0 125.0L362.0 125.0C363.10458 125.0 364.0 125.89543 364.0 127.0Z" fill-rule="nonzero"/><path stroke="#000000" stroke-width="2.0" stroke-linecap="butt" stroke-opacity="0.0" clip-path="url(#id_0)" d="M448.0 332.0L432.0 332.0L432.0 147.0C432.0 145.89543 432.89542 145.0 434.0 145.0L446.0 145.0C447.10458 145.0 448.0 145.89543 448.0 147.0Z" fill-rule="nonzero"/><path fill="#ea4335" clip-path="url(#id_0)" d="M448.0 332.0L432.0 332.0L432.0 147.0C432.0 145.89543 432.89542 145.0 434.0 145.0L446.0 145.0C447.10458 145.0 448.0 145.89543 448.0 147.0Z" fill-rule="nonzero"/><path stroke="#000000" stroke-width="2.0" stroke-linecap="butt" stroke-opacity="0.0" clip-path="url(#id_0)" d="M532.0 332.0L516.0 332.0L516.0 131.0C516.0 129.89543 516.89545 129.0 518.0 129.0L530.0 129.0C531.10455 129.0 532.0 129.89543 532.0 131.0Z" fill-rule="nonzero"/><path fill="#ea4335" clip-path="url(#id_0)" d="M532.0 332.0L516.0 332.0L516.0 131.0C516.0 129.89543 516.89545 129.0 518.0 129.0L530.0 129.0C531.10455 129.0 532.0 129.89543 532.0 131.0Z" fill-rule="nonzero"/><path stroke="#000000" stroke-width="2.0" stroke-linecap="butt" stroke-opacity="0.0" clip-path="url(#id_0)" d="M129.0 332.0L113.0 332.0L113.0 134.0C113.0 132.89543 113.89543 132.0 115.0 132.0L127.0 132.0C128.10457 132.0 129.0 132.89543 129.0 134.0Z" fill-rule="nonzero"/><path fill="#fbbc04" clip-path="url(#id_0)" d="M129.0 332.0L113.0 332.0L113.0 134.0C113.0 132.89543 113.89543 132.0 115.0 132.0L127.0 132.0C128.10457 132.0 129.0 132.89543 129.0 134.0Z" fill-rule="nonzero"/><path stroke="#000000" stroke-width="2.0" stroke-linecap="butt" stroke-opacity="0.0" clip-path="url(#id_0)" d="M213.0 332.0L197.0 332.0L197.0 109.0C197.0 107.89543 197.89543 107.0 199.0 107.0L211.0 107.0C212.10457 107.0 213.0 107.89543 213.0 109.0Z" fill-rule="nonzero"/><path fill="#fbbc04" clip-path="url(#id_0)" d="M213.0 332.0L197.0 332.0L197.0 109.0C197.0 107.89543 197.89543 107.0 199.0 107.0L211.0 107.0C212.10457 107.0 213.0 107.89543 213.0 109.0Z" fill-rule="nonzero"/><path stroke="#000000" stroke-width="2.0" stroke-linecap="butt" stroke-opacity="0.0" clip-path="url(#id_0)" d="M297.0 332.0L281.0 332.0L281.0 127.0C281.0 125.89543 281.89542 125.0 283.0 125.0L295.0 125.0C296.10458 125.0 297.0 125.89543 297.0 127.0Z" fill-rule="nonzero"/><path fill="#fbbc04" clip-path="url(#id_0)" d="M297.0 332.0L281.0 332.0L281.0 127.0C281.0 125.89543 281.89542 125.0 283.0 125.0L295.0 125.0C296.10458 125.0 297.0 125.89543 297.0 127.0Z" fill-rule="nonzero"/><path stroke="#000000" stroke-width="2.0" stroke-linecap="butt" stroke-opacity="0.0" clip-path="url(#id_0)" d="M382.0 332.0L366.0 332.0L366.0 123.0C366.0 121.89543 366.89542 121.0 368.0 121.0L380.0 121.0C381.10458 121.0 382.0 121.89543 382.0 123.0Z" fill-rule="nonzero"/><path fill="#fbbc04" clip-path="url(#id_0)" d="M382.0 332.0L366.0 332.0L366.0 123.0C366.0 121.89543 366.89542 121.0 368.0 121.0L380.0 121.0C381.10458 121.0 382.0 121.89543 382.0 123.0Z" fill-rule="nonzero"/><path stroke="#000000" stroke-width="2.0" stroke-linecap="butt" stroke-opacity="0.0" clip-path="url(#id_0)" d="M466.0 332.0L450.0 332.0L450.0 132.0C450.0 130.89543 450.89542 130.0 452.0 130.0L464.0 130.0C465.10458 130.0 466.0 130.89543 466.0 132.0Z" fill-rule="nonzero"/><path fill="#fbbc04" clip-path="url(#id_0)" d="M466.0 332.0L450.0 332.0L450.0 132.0C450.0 130.89543 450.89542 130.0 452.0 130.0L464.0 130.0C465.10458 130.0 466.0 130.89543 466.0 132.0Z" fill-rule="nonzero"/><path stroke="#000000" stroke-width="2.0" stroke-linecap="butt" stroke-opacity="0.0" clip-path="url(#id_0)" d="M550.0 332.0L534.0 332.0L534.0 126.0C534.0 124.89543 534.89545 124.0 536.0 124.0L548.0 124.0C549.10455 124.0 550.0 124.89543 550.0 126.0Z" fill-rule="nonzero"/><path fill="#fbbc04" clip-path="url(#id_0)" d="M550.0 332.0L534.0 332.0L534.0 126.0C534.0 124.89543 534.89545 124.0 536.0 124.0L548.0 124.0C549.10455 124.0 550.0 124.89543 550.0 126.0Z" fill-rule="nonzero"/><path fill="#000000" d="M33.05 332.21564Q33.05 330.6844 33.3625 329.7625Q33.675 328.825 34.284374 328.325Q34.909374 327.825 35.846874 327.825Q36.534374 327.825 37.05 328.10626Q37.58125 328.3875 37.925 328.91876Q38.26875 329.4344 38.45625 330.1844Q38.64375 330.9344 38.64375 332.21564Q38.64375 333.73126 38.33125 334.65314Q38.034374 335.575 37.409374 336.09064Q36.8 336.59064 35.846874 336.59064Q34.6125 336.59064 33.89375 335.7Q33.05 334.6375 33.05 332.21564ZM34.128124 332.21564Q34.128124 334.325 34.628124 335.02814Q35.128124 335.73126 35.846874 335.73126Q36.58125 335.73126 37.065624 335.02814Q37.565624 334.325 37.565624 332.21564Q37.565624 330.09064 37.065624 329.40314Q36.58125 328.7 35.83125 328.7Q35.1125 328.7 34.675 329.3094Q34.128124 330.09064 34.128124 332.21564Z" fill-rule="nonzero"/><path fill="#000000" d="M31.596874 286.60104L31.596874 287.61667L25.909374 287.61667Q25.909374 287.24167 26.034374 286.8823Q26.253124 286.30417 26.721874 285.74167Q27.20625 285.17917 28.1125 284.4448Q29.51875 283.28854 30.003124 282.61667Q30.503124 281.9448 30.503124 281.35104Q30.503124 280.72604 30.05 280.30417Q29.596874 279.86667 28.878124 279.86667Q28.1125 279.86667 27.659374 280.3198Q27.20625 280.77292 27.190624 281.58542L26.1125 281.47604Q26.221874 280.2573 26.940624 279.6323Q27.675 278.99167 28.909374 278.99167Q30.14375 278.99167 30.8625 279.67917Q31.58125 280.36667 31.58125 281.3823Q31.58125 281.89792 31.3625 282.39792Q31.159374 282.8823 30.659374 283.4448Q30.175 283.99167 29.05 284.9448Q28.096874 285.74167 27.815624 286.03854Q27.55 286.3198 27.378124 286.60104L31.596874 286.60104ZM33.05 285.36667L34.159374 285.27292Q34.284374 286.08542 34.721874 286.49167Q35.175 286.89792 35.815624 286.89792Q36.565624 286.89792 37.096874 286.3198Q37.628124 285.74167 37.628124 284.80417Q37.628124 283.89792 37.1125 283.3823Q36.6125 282.85104 35.784374 282.85104Q35.284374 282.85104 34.8625 283.08542Q34.45625 283.3198 34.221874 283.67917L33.2375 283.55417L34.065624 279.14792L38.346874 279.14792L38.346874 280.14792L34.909374 280.14792L34.45625 282.46042Q35.221874 281.91354 36.065624 281.91354Q37.190624 281.91354 37.95625 282.6948Q38.7375 283.47604 38.7375 284.71042Q38.7375 285.86667 38.065624 286.72604Q37.2375 287.7573 35.815624 287.7573Q34.64375 287.7573 33.89375 287.10104Q33.159374 286.4448 33.05 285.36667Z" fill-rule="nonzero"/><path fill="#000000" d="M26.05 236.53334L27.159374 236.43959Q27.284374 237.25209 27.721874 237.65834Q28.175 238.06459 28.815624 238.06459Q29.565624 238.06459 30.096874 237.48647Q30.628124 236.90834 30.628124 235.97084Q30.628124 235.06459 30.1125 234.54897Q29.6125 234.01772 28.784374 234.01772Q28.284374 234.01772 27.8625 234.25209Q27.45625 234.48647 27.221874 234.84584L26.2375 234.72084L27.065624 230.31459L31.346874 230.31459L31.346874 231.31459L27.909374 231.31459L27.45625 233.62709Q28.221874 233.08022 29.065624 233.08022Q30.190624 233.08022 30.95625 233.86147Q31.7375 234.64272 31.7375 235.87709Q31.7375 237.03334 31.065624 237.89272Q30.2375 238.92397 28.815624 238.92397Q27.64375 238.92397 26.89375 238.26772Q26.159374 237.61147 26.05 236.53334ZM33.05 234.54897Q33.05 233.01772 33.3625 232.09584Q33.675 231.15834 34.284374 230.65834Q34.909374 230.15834 35.846874 230.15834Q36.534374 230.15834 37.05 230.43959Q37.58125 230.72084 37.925 231.25209Q38.26875 231.76772 38.45625 232.51772Q38.64375 233.26772 38.64375 234.54897Q38.64375 236.06459 38.33125 236.98647Q38.034374 237.90834 37.409374 238.42397Q36.8 238.92397 35.846874 238.92397Q34.6125 238.92397 33.89375 238.03334Q33.05 236.97084 33.05 234.54897ZM34.128124 234.54897Q34.128124 236.65834 34.628124 237.36147Q35.128124 238.06459 35.846874 238.06459Q36.58125 238.06459 37.065624 237.36147Q37.565624 236.65834 37.565624 234.54897Q37.565624 232.42397 37.065624 231.73647Q36.58125 231.03334 35.83125 231.03334Q35.1125 231.03334 34.675 231.64272Q34.128124 232.42397 34.128124 234.54897Z" fill-rule="nonzero"/><path fill="#000000" d="M26.1125 182.48125L26.1125 181.46562L31.675 181.46562L31.675 182.29375Q30.8625 183.16875 30.05 184.62187Q29.253124 186.05937 28.815624 187.59062Q28.4875 188.66875 28.409374 189.95L27.315624 189.95Q27.33125 188.93437 27.70625 187.49687Q28.096874 186.05937 28.8 184.73125Q29.51875 183.40312 30.33125 182.48125L26.1125 182.48125ZM33.05 187.7L34.159374 187.60625Q34.284374 188.41875 34.721874 188.825Q35.175 189.23125 35.815624 189.23125Q36.565624 189.23125 37.096874 188.65312Q37.628124 188.075 37.628124 187.1375Q37.628124 186.23125 37.1125 185.71562Q36.6125 185.18437 35.784374 185.18437Q35.284374 185.18437 34.8625 185.41875Q34.45625 185.65312 34.221874 186.0125L33.2375 185.8875L34.065624 181.48125L38.346874 181.48125L38.346874 182.48125L34.909374 182.48125L34.45625 184.79375Q35.221874 184.24687 36.065624 184.24687Q37.190624 184.24687 37.95625 185.02812Q38.7375 185.80937 38.7375 187.04375Q38.7375 188.2 38.065624 189.05937Q37.2375 190.09062 35.815624 190.09062Q34.64375 190.09062 33.89375 189.43437Q33.159374 188.77812 33.05 187.7Z" fill-rule="nonzero"/><path fill="#000000" d="M23.01875 141.11667L21.971874 141.11667L21.971874 134.39792Q21.58125 134.7573 20.95625 135.1323Q20.346874 135.49167 19.8625 135.66354L19.8625 134.64792Q20.7375 134.22604 21.39375 133.64792Q22.065624 133.05417 22.346874 132.49167L23.01875 132.49167L23.01875 141.11667ZM26.05 136.8823Q26.05 135.35104 26.3625 134.42917Q26.675 133.49167 27.284374 132.99167Q27.909374 132.49167 28.846874 132.49167Q29.534374 132.49167 30.05 132.77292Q30.58125 133.05417 30.925 133.58542Q31.26875 134.10104 31.45625 134.85104Q31.64375 135.60104 31.64375 136.8823Q31.64375 138.39792 31.33125 139.3198Q31.034374 140.24167 30.409374 140.7573Q29.8 141.2573 28.846874 141.2573Q27.6125 141.2573 26.89375 140.36667Q26.05 139.30417 26.05 136.8823ZM27.128124 136.8823Q27.128124 138.99167 27.628124 139.6948Q28.128124 140.39792 28.846874 140.39792Q29.58125 140.39792 30.065624 139.6948Q30.565624 138.99167 30.565624 136.8823Q30.565624 134.7573 30.065624 134.0698Q29.58125 133.36667 28.83125 133.36667Q28.1125 133.36667 27.675 133.97604Q27.128124 134.7573 27.128124 136.8823ZM33.05 136.8823Q33.05 135.35104 33.3625 134.42917Q33.675 133.49167 34.284374 132.99167Q34.909374 132.49167 35.846874 132.49167Q36.534374 132.49167 37.05 132.77292Q37.58125 133.05417 37.925 133.58542Q38.26875 134.10104 38.45625 134.85104Q38.64375 135.60104 38.64375 136.8823Q38.64375 138.39792 38.33125 139.3198Q38.034374 140.24167 37.409374 140.7573Q36.8 141.2573 35.846874 141.2573Q34.6125 141.2573 33.89375 140.36667Q33.05 139.30417 33.05 136.8823ZM34.128124 136.8823Q34.128124 138.99167 34.628124 139.6948Q35.128124 140.39792 35.846874 140.39792Q36.58125 140.39792 37.065624 139.6948Q37.565624 138.99167 37.565624 136.8823Q37.565624 134.7573 37.065624 134.0698Q36.58125 133.36667 35.83125 133.36667Q35.1125 133.36667 34.675 133.97604Q34.128124 134.7573 34.128124 136.8823Z" fill-rule="nonzero"/><path fill="#000000" d="M23.01875 92.28333L21.971874 92.28333L21.971874 85.56458Q21.58125 85.92396 20.95625 86.29896Q20.346874 86.65833 19.8625 86.83021L19.8625 85.81458Q20.7375 85.39271 21.39375 84.81458Q22.065624 84.22083 22.346874 83.65833L23.01875 83.65833L23.01875 92.28333ZM31.596874 91.26771L31.596874 92.28333L25.909374 92.28333Q25.909374 91.90833 26.034374 91.54896Q26.253124 90.97083 26.721874 90.40833Q27.20625 89.84583 28.1125 89.11146Q29.51875 87.95521 30.003124 87.28333Q30.503124 86.61146 30.503124 86.01771Q30.503124 85.39271 30.05 84.97083Q29.596874 84.53333 28.878124 84.53333Q28.1125 84.53333 27.659374 84.98646Q27.20625 85.43958 27.190624 86.25208L26.1125 86.14271Q26.221874 84.92396 26.940624 84.29896Q27.675 83.65833 28.909374 83.65833Q30.14375 83.65833 30.8625 84.34583Q31.58125 85.03333 31.58125 86.04896Q31.58125 86.56458 31.3625 87.06458Q31.159374 87.54896 30.659374 88.11146Q30.175 88.65833 29.05 89.61146Q28.096874 90.40833 27.815624 90.70521Q27.55 90.98646 27.378124 91.26771L31.596874 91.26771ZM33.05 90.03333L34.159374 89.93958Q34.284374 90.75208 34.721874 91.15833Q35.175 91.56458 35.815624 91.56458Q36.565624 91.56458 37.096874 90.98646Q37.628124 90.40833 37.628124 89.47083Q37.628124 88.56458 37.1125 88.04896Q36.6125 87.51771 35.784374 87.51771Q35.284374 87.51771 34.8625 87.75208Q34.45625 87.98646 34.221874 88.34583L33.2375 88.22083L34.065624 83.81458L38.346874 83.81458L38.346874 84.81458L34.909374 84.81458L34.45625 87.12708Q35.221874 86.58021 36.065624 86.58021Q37.190624 86.58021 37.95625 87.36146Q38.7375 88.14271 38.7375 89.37708Q38.7375 90.53333 38.065624 91.39271Q37.2375 92.42396 35.815624 92.42396Q34.64375 92.42396 33.89375 91.76771Q33.159374 91.11146 33.05 90.03333Z" fill-rule="nonzero"/><path fill="#000000" d="M75.81262 351.84064L75.81262 343.23126L76.76575 343.23126L76.76575 344.02814Q77.1095 343.5594 77.53137 343.325Q77.96887 343.09064 78.57825 343.09064Q79.37512 343.09064 79.9845 343.4969Q80.59387 343.90314 80.89075 344.65314Q81.20325 345.40314 81.20325 346.29376Q81.20325 347.2469 80.8595 348.0125Q80.53137 348.77814 79.87512 349.1844Q79.21887 349.59064 78.50012 349.59064Q77.96887 349.59064 77.547 349.3719Q77.12512 349.1375 76.8595 348.8094L76.8595 351.84064L75.81262 351.84064ZM76.76575 346.3719Q76.76575 347.575 77.25012 348.15314Q77.7345 348.71564 78.422 348.71564Q79.12512 348.71564 79.62512 348.1219Q80.12512 347.52814 80.12512 346.27814Q80.12512 345.09064 79.64075 344.5125Q79.15637 343.91876 78.46887 343.91876Q77.797 343.91876 77.28137 344.54376Q76.76575 345.16876 76.76575 346.3719ZM86.87512 348.6844Q86.28137 349.1844 85.7345 349.3875Q85.20325 349.59064 84.57825 349.59064Q83.547 349.59064 83.00012 349.09064Q82.45325 348.59064 82.45325 347.8094Q82.45325 347.35626 82.65637 346.98126Q82.8595 346.59064 83.20325 346.3719Q83.547 346.1375 83.96887 346.02814Q84.26575 345.9344 84.90637 345.85626Q86.172 345.71564 86.78137 345.4969Q86.78137 345.27814 86.78137 345.23126Q86.78137 344.575 86.4845 344.3094Q86.07825 343.96564 85.28137 343.96564Q84.547 343.96564 84.18762 344.23126Q83.82825 344.48126 83.65637 345.1375L82.62512 344.9969Q82.76575 344.34064 83.09387 343.9344Q83.422 343.52814 84.03137 343.3094Q84.64075 343.09064 85.43762 343.09064Q86.2345 343.09064 86.7345 343.27814Q87.2345 343.46564 87.46887 343.7469Q87.70325 344.02814 87.797 344.46564Q87.84387 344.73126 87.84387 345.4344L87.84387 346.84064Q87.84387 348.3094 87.90637 348.7Q87.9845 349.09064 88.18762 349.45L87.07825 349.45Q86.922 349.1219 86.87512 348.6844ZM86.78137 346.325Q86.20325 346.5594 85.06262 346.73126Q84.40637 346.825 84.14075 346.95Q83.87512 347.0594 83.71887 347.27814Q83.57825 347.4969 83.57825 347.77814Q83.57825 348.2 83.89075 348.48126Q84.21887 348.7625 84.82825 348.7625Q85.43762 348.7625 85.90637 348.4969Q86.39075 348.23126 86.6095 347.7625Q86.78137 347.40314 86.78137 346.71564L86.78137 346.325ZM92.1095 348.5125L92.26575 349.4344Q91.81262 349.52814 91.46887 349.52814Q90.89075 349.52814 90.57825 349.35626Q90.26575 349.16876 90.12512 348.8719Q90.00012 348.575 90.00012 347.6219L90.00012 344.04376L89.2345 344.04376L89.2345 343.23126L90.00012 343.23126L90.00012 341.6844L91.047 341.0594L91.047 343.23126L92.1095 343.23126L92.1095 344.04376L91.047 344.04376L91.047 347.6844Q91.047 348.1375 91.09387 348.2625Q91.15637 348.3875 91.28137 348.46564Q91.40637 348.54376 91.64075 348.54376Q91.82825 348.54376 92.1095 348.5125ZM92.81262 349.45L92.81262 340.85626L93.8595 340.85626L93.8595 343.9344Q94.59387 343.09064 95.71887 343.09064Q96.422 343.09064 96.922 343.3719Q97.43762 343.6375 97.65637 344.1219Q97.87512 344.59064 97.87512 345.5125L97.87512 349.45L96.82825 349.45L96.82825 345.5125Q96.82825 344.71564 96.4845 344.35626Q96.14075 343.9969 95.51575 343.9969Q95.047 343.9969 94.62512 344.2469Q94.21887 344.48126 94.03137 344.90314Q93.8595 345.3094 93.8595 346.04376L93.8595 349.45L92.81262 349.45ZM100.06262 349.45L100.06262 344.04376L99.12512 344.04376L99.12512 343.23126L100.06262 343.23126L100.06262 342.5594Q100.06262 341.9344 100.172 341.6375Q100.32825 341.21564 100.70325 340.96564Q101.09387 340.71564 101.78137 340.71564Q102.2345 340.71564 102.76575 340.825L102.6095 341.73126Q102.28137 341.6844 101.9845 341.6844Q101.50012 341.6844 101.297 341.8875Q101.1095 342.09064 101.1095 342.65314L101.1095 343.23126L102.32825 343.23126L102.32825 344.04376L101.1095 344.04376L101.1095 349.45L100.06262 349.45ZM102.81262 342.075L102.81262 340.85626L103.87512 340.85626L103.87512 342.075L102.81262 342.075ZM102.81262 349.45L102.81262 343.23126L103.87512 343.23126L103.87512 349.45L102.81262 349.45ZM105.81262 349.45L105.81262 343.23126L106.75012 343.23126L106.75012 344.10626Q107.43762 343.09064 108.7345 343.09064Q109.297 343.09064 109.76575 343.29376Q110.25012 343.4969 110.4845 343.825Q110.71887 344.15314 110.81262 344.59064Q110.8595 344.8875 110.8595 345.6219L110.8595 349.45L109.81262 349.45L109.81262 345.66876Q109.81262 345.0125 109.68762 344.7Q109.56262 344.3875 109.25012 344.2Q108.93762 343.9969 108.51575 343.9969Q107.84387 343.9969 107.34387 344.4344Q106.8595 344.85626 106.8595 346.04376L106.8595 349.45L105.81262 349.45ZM116.84387 349.45L116.84387 348.66876Q116.25012 349.59064 115.1095 349.59064Q114.3595 349.59064 113.7345 349.1844Q113.1095 348.7625 112.76575 348.02814Q112.422 347.29376 112.422 346.34064Q112.422 345.41876 112.7345 344.65314Q113.047 343.8875 113.672 343.4969Q114.297 343.09064 115.06262 343.09064Q115.62512 343.09064 116.06262 343.325Q116.50012 343.5594 116.78137 343.9344L116.78137 340.85626L117.82825 340.85626L117.82825 349.45L116.84387 349.45ZM113.51575 346.34064Q113.51575 347.54376 114.01575 348.1375Q114.51575 348.71564 115.20325 348.71564Q115.89075 348.71564 116.37512 348.15314Q116.8595 347.59064 116.8595 346.4344Q116.8595 345.15314 116.3595 344.5594Q115.87512 343.96564 115.15637 343.96564Q114.45325 343.96564 113.9845 344.54376Q113.51575 345.10626 113.51575 346.34064ZM124.06262 347.45L125.15637 347.575Q124.90637 348.52814 124.20325 349.0594Q123.50012 349.59064 122.422 349.59064Q121.06262 349.59064 120.25012 348.7469Q119.45325 347.90314 119.45325 346.3875Q119.45325 344.825 120.26575 343.96564Q121.07825 343.09064 122.3595 343.09064Q123.6095 343.09064 124.39075 343.9344Q125.18762 344.77814 125.18762 346.325Q125.18762 346.41876 125.18762 346.60626L120.547 346.60626Q120.6095 347.6375 121.12512 348.1844Q121.64075 348.71564 122.422 348.71564Q123.00012 348.71564 123.40637 348.41876Q123.82825 348.10626 124.06262 347.45ZM120.6095 345.7469L124.07825 345.7469Q124.01575 344.95 123.68762 344.5594Q123.172 343.95 122.37512 343.95Q121.64075 343.95 121.14075 344.4344Q120.65637 344.91876 120.6095 345.7469ZM126.797 349.45L126.797 343.23126L127.75012 343.23126L127.75012 344.16876Q128.1095 343.5125 128.40637 343.3094Q128.71887 343.09064 129.09387 343.09064Q129.62512 343.09064 130.172 343.41876L129.81262 344.40314Q129.422 344.16876 129.047 344.16876Q128.68762 344.16876 128.40637 344.3875Q128.14075 344.59064 128.03137 344.96564Q127.84387 345.52814 127.84387 346.1844L127.84387 349.45L126.797 349.45Z" fill-rule="nonzero"/><path fill="#000000" d="M166.3782 349.45L166.3782 340.85626L167.5032 340.85626L167.5032 344.3875L171.97195 344.3875L171.97195 340.85626L173.11258 340.85626L173.11258 349.45L171.97195 349.45L171.97195 345.40314L167.5032 345.40314L167.5032 349.45L166.3782 349.45ZM174.8157 346.34064Q174.8157 344.60626 175.76883 343.77814Q176.5657 343.09064 177.72195 343.09064Q179.0032 343.09064 179.8157 343.9344Q180.64383 344.7625 180.64383 346.2469Q180.64383 347.45 180.28445 348.1375Q179.92508 348.825 179.22195 349.21564Q178.53445 349.59064 177.72195 349.59064Q176.42508 349.59064 175.61258 348.7625Q174.8157 347.91876 174.8157 346.34064ZM175.89383 346.34064Q175.89383 347.52814 176.40945 348.1219Q176.9407 348.71564 177.72195 348.71564Q178.51883 348.71564 179.03445 348.1219Q179.55008 347.52814 179.55008 346.3094Q179.55008 345.15314 179.01883 344.5594Q178.5032 343.96564 177.72195 343.96564Q176.9407 343.96564 176.40945 344.5594Q175.89383 345.1375 175.89383 346.34064ZM184.5032 348.5125L184.65945 349.4344Q184.20633 349.52814 183.86258 349.52814Q183.28445 349.52814 182.97195 349.35626Q182.65945 349.16876 182.51883 348.8719Q182.39383 348.575 182.39383 347.6219L182.39383 344.04376L181.6282 344.04376L181.6282 343.23126L182.39383 343.23126L182.39383 341.6844L183.4407 341.0594L183.4407 343.23126L184.5032 343.23126L184.5032 344.04376L183.4407 344.04376L183.4407 347.6844Q183.4407 348.1375 183.48758 348.2625Q183.55008 348.3875 183.67508 348.46564Q183.80008 348.54376 184.03445 348.54376Q184.22195 348.54376 184.5032 348.5125ZM184.78445 347.59064L185.8157 347.4344Q185.90945 348.0594 186.30008 348.3875Q186.70633 348.71564 187.4407 348.71564Q188.15945 348.71564 188.5032 348.4344Q188.86258 348.1375 188.86258 347.73126Q188.86258 347.3719 188.55008 347.16876Q188.33133 347.02814 187.47195 346.8094Q186.3157 346.5125 185.86258 346.3094Q185.42508 346.09064 185.1907 345.71564Q184.95633 345.34064 184.95633 344.8719Q184.95633 344.46564 185.14383 344.10626Q185.33133 343.7469 185.65945 343.5125Q185.90945 343.34064 186.33133 343.21564Q186.7532 343.09064 187.2532 343.09064Q187.97195 343.09064 188.51883 343.3094Q189.08133 343.5125 189.34695 343.8719Q189.61258 344.23126 189.70633 344.825L188.67508 344.96564Q188.61258 344.4969 188.26883 344.23126Q187.9407 343.95 187.3157 343.95Q186.59695 343.95 186.28445 344.2Q185.97195 344.4344 185.97195 344.7625Q185.97195 344.96564 186.09695 345.1219Q186.23758 345.29376 186.5032 345.40314Q186.65945 345.46564 187.4407 345.66876Q188.5657 345.98126 189.0032 346.16876Q189.4407 346.35626 189.6907 346.71564Q189.9407 347.075 189.9407 347.6219Q189.9407 348.15314 189.6282 348.6219Q189.33133 349.075 188.7532 349.34064Q188.17508 349.59064 187.4407 349.59064Q186.22195 349.59064 185.58133 349.09064Q184.95633 348.575 184.78445 347.59064ZM192.20633 351.84064L192.20633 343.23126L193.15945 343.23126L193.15945 344.02814Q193.5032 343.5594 193.92508 343.325Q194.36258 343.09064 194.97195 343.09064Q195.76883 343.09064 196.3782 343.4969Q196.98758 343.90314 197.28445 344.65314Q197.59695 345.40314 197.59695 346.29376Q197.59695 347.2469 197.2532 348.0125Q196.92508 348.77814 196.26883 349.1844Q195.61258 349.59064 194.89383 349.59064Q194.36258 349.59064 193.9407 349.3719Q193.51883 349.1375 193.2532 348.8094L193.2532 351.84064L192.20633 351.84064ZM193.15945 346.3719Q193.15945 347.575 193.64383 348.15314Q194.1282 348.71564 194.8157 348.71564Q195.51883 348.71564 196.01883 348.1219Q196.51883 347.52814 196.51883 346.27814Q196.51883 345.09064 196.03445 344.5125Q195.55008 343.91876 194.86258 343.91876Q194.1907 343.91876 193.67508 344.54376Q193.15945 345.16876 193.15945 346.3719ZM198.8157 346.34064Q198.8157 344.60626 199.76883 343.77814Q200.5657 343.09064 201.72195 343.09064Q203.0032 343.09064 203.8157 343.9344Q204.64383 344.7625 204.64383 346.2469Q204.64383 347.45 204.28445 348.1375Q203.92508 348.825 203.22195 349.21564Q202.53445 349.59064 201.72195 349.59064Q200.42508 349.59064 199.61258 348.7625Q198.8157 347.91876 198.8157 346.34064ZM199.89383 346.34064Q199.89383 347.52814 200.40945 348.1219Q200.9407 348.71564 201.72195 348.71564Q202.51883 348.71564 203.03445 348.1219Q203.55008 347.52814 203.55008 346.3094Q203.55008 345.15314 203.01883 344.5594Q202.5032 343.96564 201.72195 343.96564Q200.9407 343.96564 200.40945 344.5594Q199.89383 345.1375 199.89383 346.34064ZM208.5032 348.5125L208.65945 349.4344Q208.20633 349.52814 207.86258 349.52814Q207.28445 349.52814 206.97195 349.35626Q206.65945 349.16876 206.51883 348.8719Q206.39383 348.575 206.39383 347.6219L206.39383 344.04376L205.6282 344.04376L205.6282 343.23126L206.39383 343.23126L206.39383 341.6844L207.4407 341.0594L207.4407 343.23126L208.5032 343.23126L208.5032 344.04376L207.4407 344.04376L207.4407 347.6844Q207.4407 348.1375 207.48758 348.2625Q207.55008 348.3875 207.67508 348.46564Q207.80008 348.54376 208.03445 348.54376Q208.22195 348.54376 208.5032 348.5125Z" fill-rule="nonzero"/><path fill="#000000" d="M260.67816 349.45L260.67816 340.85626L263.91254 340.85626Q264.8969 340.85626 265.49066 341.1219Q266.0844 341.3875 266.41254 341.9344Q266.7563 342.46564 266.7563 343.0594Q266.7563 343.60626 266.4594 344.09064Q266.16254 344.575 265.55316 344.8719Q266.3344 345.10626 266.74066 345.66876Q267.16254 346.21564 267.16254 346.96564Q267.16254 347.5594 266.91254 348.09064Q266.66254 348.60626 266.28754 348.8875Q265.91254 349.16876 265.3344 349.3094Q264.7719 349.45 263.9594 349.45L260.67816 349.45ZM261.8188 344.46564L263.67816 344.46564Q264.42816 344.46564 264.7563 344.3719Q265.1938 344.2469 265.41254 343.95Q265.6313 343.6375 265.6313 343.1844Q265.6313 342.7625 265.42816 342.4344Q265.22504 342.10626 264.8344 341.9969Q264.4594 341.8719 263.53754 341.8719L261.8188 341.8719L261.8188 344.46564ZM261.8188 348.4344L263.9594 348.4344Q264.5063 348.4344 264.72504 348.3875Q265.1313 348.325 265.3813 348.16876Q265.6469 347.9969 265.8188 347.6844Q265.99066 347.3719 265.99066 346.96564Q265.99066 346.48126 265.74066 346.1219Q265.5063 345.7625 265.0688 345.6219Q264.6313 345.48126 263.80316 345.48126L261.8188 345.48126L261.8188 348.4344ZM268.78754 349.45L268.78754 340.85626L274.5844 340.85626L274.5844 341.8719L269.92816 341.8719L269.92816 344.52814L273.9594 344.52814L273.9594 345.54376L269.92816 345.54376L269.92816 349.45L268.78754 349.45ZM275.35004 346.6844L276.41254 346.59064Q276.49066 347.2469 276.7719 347.65314Q277.05316 348.0594 277.6313 348.325Q278.22504 348.575 278.9594 348.575Q279.60004 348.575 280.10004 348.3875Q280.60004 348.1844 280.8344 347.85626Q281.0844 347.5125 281.0844 347.1219Q281.0844 346.71564 280.85004 346.41876Q280.61566 346.10626 280.0844 345.90314Q279.72504 345.7625 278.53754 345.48126Q277.36566 345.2 276.8969 344.95Q276.2719 344.6219 275.97504 344.15314Q275.67816 343.66876 275.67816 343.075Q275.67816 342.4344 276.03754 341.8719Q276.41254 341.29376 277.11566 341.0125Q277.8344 340.71564 278.6938 340.71564Q279.6469 340.71564 280.3813 341.02814Q281.11566 341.325 281.5063 341.9344Q281.8969 342.52814 281.92816 343.27814L280.8344 343.35626Q280.74066 342.54376 280.22504 342.1375Q279.72504 341.71564 278.74066 341.71564Q277.7094 341.71564 277.24066 342.09064Q276.7719 342.46564 276.7719 342.9969Q276.7719 343.46564 277.10004 343.7625Q277.42816 344.0594 278.80316 344.3719Q280.1938 344.6844 280.7094 344.91876Q281.4594 345.27814 281.8188 345.8094Q282.17816 346.325 282.17816 347.02814Q282.17816 347.71564 281.78754 348.325Q281.3969 348.91876 280.66254 349.2625Q279.92816 349.59064 279.0063 349.59064Q277.8344 349.59064 277.03754 349.2625Q276.2563 348.91876 275.80316 348.23126Q275.36566 347.54376 275.35004 346.6844Z" fill-rule="nonzero"/><path fill="#000000" d="M340.19684 347.1844L341.25934 347.04376Q341.4312 347.9344 341.8687 348.34064Q342.3062 348.73126 342.9312 348.73126Q343.6812 348.73126 344.19684 348.21564Q344.71246 347.7 344.71246 346.9344Q344.71246 346.21564 344.2281 345.7469Q343.75934 345.2625 343.02496 345.2625Q342.7281 345.2625 342.27496 345.3875L342.39996 344.45Q342.50934 344.46564 342.57184 344.46564Q343.2437 344.46564 343.77496 344.1219Q344.32184 343.7625 344.32184 343.02814Q344.32184 342.45 343.9312 342.075Q343.5406 341.6844 342.9156 341.6844Q342.3062 341.6844 341.88434 342.075Q341.4781 342.46564 341.3687 343.23126L340.3062 343.04376Q340.4937 341.9969 341.1812 341.41876Q341.8687 340.825 342.88434 340.825Q343.58746 340.825 344.1812 341.1375Q344.77496 341.4344 345.08746 341.95Q345.39996 342.46564 345.39996 343.0594Q345.39996 343.60626 345.1031 344.075Q344.8062 344.52814 344.2281 344.79376Q344.9781 344.96564 345.39996 345.52814Q345.82184 346.075 345.82184 346.91876Q345.82184 348.04376 344.9937 348.825Q344.1812 349.60626 342.9312 349.60626Q341.8062 349.60626 341.0562 348.9344Q340.3062 348.2469 340.19684 347.1844ZM347.6187 349.45L347.6187 340.85626L350.58746 340.85626Q351.58746 340.85626 352.1187 340.98126Q352.8531 341.15314 353.3687 341.59064Q354.0562 342.16876 354.38434 343.075Q354.7281 343.96564 354.7281 345.10626Q354.7281 346.09064 354.4937 346.84064Q354.27496 347.59064 353.9156 348.09064Q353.5562 348.59064 353.1187 348.8719Q352.69684 349.15314 352.1031 349.3094Q351.50934 349.45 350.7281 349.45L347.6187 349.45ZM348.75934 348.4344L350.58746 348.4344Q351.44684 348.4344 351.9312 348.27814Q352.4156 348.1219 352.69684 347.825Q353.1031 347.4344 353.32184 346.7469Q353.5562 346.0594 353.5562 345.09064Q353.5562 343.7469 353.1031 343.02814Q352.6656 342.29376 352.0406 342.04376Q351.57184 341.8719 350.57184 341.8719L348.75934 341.8719L348.75934 348.4344ZM362.75934 346.4344L363.88434 346.73126Q363.52496 348.1219 362.6031 348.85626Q361.6812 349.59064 360.33746 349.59064Q358.94684 349.59064 358.07184 349.02814Q357.19684 348.46564 356.7437 347.40314Q356.2906 346.325 356.2906 345.09064Q356.2906 343.7469 356.8062 342.7469Q357.32184 341.7469 358.25934 341.23126Q359.21246 340.71564 360.3531 340.71564Q361.63434 340.71564 362.50934 341.3719Q363.39996 342.02814 363.7437 343.21564L362.6187 343.48126Q362.32184 342.54376 361.7437 342.1219Q361.1812 341.6844 360.32184 341.6844Q359.33746 341.6844 358.6656 342.16876Q358.00934 342.6375 357.7281 343.4344Q357.46246 344.23126 357.46246 345.09064Q357.46246 346.1844 357.77496 346.9969Q358.1031 347.8094 358.77496 348.21564Q359.44684 348.6219 360.2437 348.6219Q361.19684 348.6219 361.8531 348.075Q362.52496 347.52814 362.75934 346.4344ZM368.07184 349.45L364.7437 340.85626L365.9781 340.85626L368.21246 347.10626Q368.4781 347.85626 368.6656 348.5125Q368.8687 347.8094 369.13434 347.10626L371.44684 340.85626L372.6031 340.85626L369.2437 349.45L368.07184 349.45Z" fill-rule="nonzero"/><path fill="#000000" d="M428.09055 347.1844L429.15305 347.04376Q429.32492 347.9344 429.76242 348.34064Q430.19992 348.73126 430.82492 348.73126Q431.57492 348.73126 432.09055 348.21564Q432.60617 347.7 432.60617 346.9344Q432.60617 346.21564 432.1218 345.7469Q431.65305 345.2625 430.91867 345.2625Q430.6218 345.2625 430.16867 345.3875L430.29367 344.45Q430.40305 344.46564 430.46555 344.46564Q431.13742 344.46564 431.66867 344.1219Q432.21555 343.7625 432.21555 343.02814Q432.21555 342.45 431.82492 342.075Q431.4343 341.6844 430.8093 341.6844Q430.19992 341.6844 429.77805 342.075Q429.3718 342.46564 429.26242 343.23126L428.19992 343.04376Q428.38742 341.9969 429.07492 341.41876Q429.76242 340.825 430.77805 340.825Q431.48117 340.825 432.07492 341.1375Q432.66867 341.4344 432.98117 341.95Q433.29367 342.46564 433.29367 343.0594Q433.29367 343.60626 432.9968 344.075Q432.69992 344.52814 432.1218 344.79376Q432.8718 344.96564 433.29367 345.52814Q433.71555 346.075 433.71555 346.91876Q433.71555 348.04376 432.88742 348.825Q432.07492 349.60626 430.82492 349.60626Q429.69992 349.60626 428.94992 348.9344Q428.19992 348.2469 428.09055 347.1844ZM435.48117 349.45L435.48117 340.85626L437.19992 340.85626L439.23117 346.9344Q439.51242 347.79376 439.63742 348.21564Q439.77805 347.7469 440.09055 346.84064L442.15305 340.85626L443.6843 340.85626L443.6843 349.45L442.59055 349.45L442.59055 342.2625L440.09055 349.45L439.0593 349.45L436.57492 342.1375L436.57492 349.45L435.48117 349.45ZM444.48117 349.45L444.48117 340.85626L446.19992 340.85626L448.23117 346.9344Q448.51242 347.79376 448.63742 348.21564Q448.77805 347.7469 449.09055 346.84064L451.15305 340.85626L452.6843 340.85626L452.6843 349.45L451.59055 349.45L451.59055 342.2625L449.09055 349.45L448.0593 349.45L445.57492 342.1375L445.57492 349.45L444.48117 349.45Z" fill-rule="nonzero"/><path fill="#000000" d="M502.46863 349.45L505.7655 340.85626L506.98425 340.85626L510.49988 349.45L509.21863 349.45L508.203 346.84064L504.62488 346.84064L503.67175 349.45L502.46863 349.45ZM504.953 345.91876L507.85925 345.91876L506.96863 343.54376Q506.54675 342.46564 506.35925 341.7625Q506.18738 342.59064 505.8905 343.40314L504.953 345.91876ZM511.99988 349.45L509.6405 343.23126L510.74988 343.23126L512.0936 346.95Q512.29675 347.5594 512.48425 348.2Q512.6249 347.71564 512.8749 347.02814L514.2655 343.23126L515.3436 343.23126L512.98425 349.45L511.99988 349.45ZM519.5311 347.45L520.6249 347.575Q520.3749 348.52814 519.67175 349.0594Q518.9686 349.59064 517.8905 349.59064Q516.5311 349.59064 515.7186 348.7469Q514.92175 347.90314 514.92175 346.3875Q514.92175 344.825 515.73425 343.96564Q516.54675 343.09064 517.828 343.09064Q519.078 343.09064 519.85925 343.9344Q520.6561 344.77814 520.6561 346.325Q520.6561 346.41876 520.6561 346.60626L516.0155 346.60626Q516.078 347.6375 516.5936 348.1844Q517.10925 348.71564 517.8905 348.71564Q518.4686 348.71564 518.8749 348.41876Q519.29675 348.10626 519.5311 347.45ZM516.078 345.7469L519.54675 345.7469Q519.48425 344.95 519.1561 344.5594Q518.6405 343.95 517.8436 343.95Q517.10925 343.95 516.60925 344.4344Q516.1249 344.91876 516.078 345.7469ZM522.2655 349.45L522.2655 343.23126L523.2186 343.23126L523.2186 344.16876Q523.578 343.5125 523.8749 343.3094Q524.1874 343.09064 524.5624 343.09064Q525.0936 343.09064 525.6405 343.41876L525.2811 344.40314Q524.8905 344.16876 524.5155 344.16876Q524.1561 344.16876 523.8749 344.3875Q523.60925 344.59064 523.4999 344.96564Q523.3124 345.52814 523.3124 346.1844L523.3124 349.45L522.2655 349.45ZM530.3436 348.6844Q529.7499 349.1844 529.203 349.3875Q528.67175 349.59064 528.04675 349.59064Q527.0155 349.59064 526.4686 349.09064Q525.92175 348.59064 525.92175 347.8094Q525.92175 347.35626 526.1249 346.98126Q526.328 346.59064 526.67175 346.3719Q527.0155 346.1375 527.4374 346.02814Q527.73425 345.9344 528.3749 345.85626Q529.6405 345.71564 530.2499 345.4969Q530.2499 345.27814 530.2499 345.23126Q530.2499 344.575 529.953 344.3094Q529.54675 343.96564 528.7499 343.96564Q528.0155 343.96564 527.6561 344.23126Q527.29675 344.48126 527.1249 345.1375L526.0936 344.9969Q526.23425 344.34064 526.5624 343.9344Q526.8905 343.52814 527.4999 343.3094Q528.10925 343.09064 528.9061 343.09064Q529.703 343.09064 530.203 343.27814Q530.703 343.46564 530.9374 343.7469Q531.17175 344.02814 531.2655 344.46564Q531.3124 344.73126 531.3124 345.4344L531.3124 346.84064Q531.3124 348.3094 531.3749 348.7Q531.453 349.09064 531.6561 349.45L530.54675 349.45Q530.3905 349.1219 530.3436 348.6844ZM530.2499 346.325Q529.67175 346.5594 528.5311 346.73126Q527.8749 346.825 527.60925 346.95Q527.3436 347.0594 527.1874 347.27814Q527.04675 347.4969 527.04675 347.77814Q527.04675 348.2 527.35925 348.48126Q527.6874 348.7625 528.29675 348.7625Q528.9061 348.7625 529.3749 348.4969Q529.85925 348.23126 530.078 347.7625Q530.2499 347.40314 530.2499 346.71564L530.2499 346.325ZM533.078 349.96564L534.10925 350.1219Q534.17175 350.59064 534.4686 350.8094Q534.85925 351.10626 535.5311 351.10626Q536.2655 351.10626 536.6561 350.8094Q537.0624 350.5125 537.203 349.9969Q537.29675 349.66876 537.2811 348.6375Q536.5936 349.45 535.5624 349.45Q534.2811 349.45 533.578 348.52814Q532.8749 347.59064 532.8749 346.3094Q532.8749 345.41876 533.1874 344.66876Q533.5155 343.90314 534.1249 343.4969Q534.73425 343.09064 535.5624 343.09064Q536.67175 343.09064 537.3905 343.98126L537.3905 343.23126L538.35925 343.23126L538.35925 348.60626Q538.35925 350.0594 538.0624 350.66876Q537.7655 351.27814 537.1249 351.6219Q536.48425 351.98126 535.54675 351.98126Q534.4374 351.98126 533.7499 351.48126Q533.0624 350.98126 533.078 349.96564ZM533.953 346.23126Q533.953 347.45 534.4374 348.0125Q534.92175 348.575 535.6561 348.575Q536.3905 348.575 536.8749 348.0125Q537.3749 347.45 537.3749 346.2625Q537.3749 345.1219 536.85925 344.54376Q536.35925 343.96564 535.6405 343.96564Q534.9374 343.96564 534.4374 344.54376Q533.953 345.10626 533.953 346.23126ZM544.5311 347.45L545.6249 347.575Q545.3749 348.52814 544.67175 349.0594Q543.9686 349.59064 542.8905 349.59064Q541.5311 349.59064 540.7186 348.7469Q539.92175 347.90314 539.92175 346.3875Q539.92175 344.825 540.73425 343.96564Q541.54675 343.09064 542.828 343.09064Q544.078 343.09064 544.85925 343.9344Q545.6561 344.77814 545.6561 346.325Q545.6561 346.41876 545.6561 346.60626L541.0155 346.60626Q541.078 347.6375 541.5936 348.1844Q542.10925 348.71564 542.8905 348.71564Q543.4686 348.71564 543.8749 348.41876Q544.29675 348.10626 544.5311 347.45ZM541.078 345.7469L544.54675 345.7469Q544.48425 344.95 544.1561 344.5594Q543.6405 343.95 542.8436 343.95Q542.10925 343.95 541.60925 344.4344Q541.1249 344.91876 541.078 345.7469Z" fill-rule="nonzero"/><path fill="#4285f4" d="M224.0 56.916668C224.0 56.364384 224.44771 55.916668 225.0 55.916668L235.0 55.916668C235.55229 55.916668 236.0 56.364384 236.0 56.916668L236.0 66.916664C236.0 67.46895 235.55229 67.916664 235.0 67.916664L225.0 67.916664C224.44771 67.916664 224.0 67.46895 224.0 66.916664Z" fill-rule="nonzero"/><path fill="#1a1a1a" d="M244.76562 65.916664L244.76562 57.322914L245.82812 57.322914L245.82812 65.916664L244.76562 65.916664ZM247.78125 65.916664L247.78125 59.697914L248.73438 59.697914L248.73438 60.635414Q249.09375 59.979164 249.39062 59.77604Q249.70312 59.55729 250.07812 59.55729Q250.60938 59.55729 251.15625 59.885414L250.79688 60.86979Q250.40625 60.635414 250.03125 60.635414Q249.67188 60.635414 249.39062 60.854164Q249.125 61.05729 249.01562 61.43229Q248.82812 61.99479 248.82812 62.65104L248.82812 65.916664L247.78125 65.916664ZM251.78125 65.916664L251.78125 59.697914L252.73438 59.697914L252.73438 60.635414Q253.09375 59.979164 253.39062 59.77604Q253.70312 59.55729 254.07812 59.55729Q254.60938 59.55729 255.15625 59.885414L254.79688 60.86979Q254.40625 60.635414 254.03125 60.635414Q253.67188 60.635414 253.39062 60.854164Q253.125 61.05729 253.01562 61.43229Q252.82812 61.99479 252.82812 62.65104L252.82812 65.916664L251.78125 65.916664Z" fill-rule="nonzero"/><path fill="#ea4335" d="M271.0 56.916668C271.0 56.364384 271.44772 55.916668 272.0 55.916668L282.0 55.916668C282.55228 55.916668 283.0 56.364384 283.0 56.916668L283.0 66.916664C283.0 67.46895 282.55228 67.916664 282.0 67.916664L272.0 67.916664C271.44772 67.916664 271.0 67.46895 271.0 66.916664Z" fill-rule="nonzero"/><path fill="#1a1a1a" d="M291.59375 66.43229L292.625 66.58854Q292.6875 67.05729 292.98438 67.27604Q293.375 67.572914 294.04688 67.572914Q294.78125 67.572914 295.17188 67.27604Q295.57812 66.979164 295.71875 66.46354Q295.8125 66.135414 295.79688 65.104164Q295.10938 65.916664 294.07812 65.916664Q292.79688 65.916664 292.09375 64.99479Q291.39062 64.05729 291.39062 62.77604Q291.39062 61.885414 291.70312 61.135414Q292.03125 60.36979 292.64062 59.96354Q293.25 59.55729 294.07812 59.55729Q295.1875 59.55729 295.90625 60.447914L295.90625 59.697914L296.875 59.697914L296.875 65.072914Q296.875 66.52604 296.57812 67.135414Q296.28125 67.74479 295.64062 68.08854Q295.0 68.447914 294.0625 68.447914Q292.95312 68.447914 292.26562 67.947914Q291.57812 67.447914 291.59375 66.43229ZM292.46875 62.697914Q292.46875 63.916664 292.95312 64.479164Q293.4375 65.041664 294.17188 65.041664Q294.90625 65.041664 295.39062 64.479164Q295.89062 63.916664 295.89062 62.729164Q295.89062 61.58854 295.375 61.010414Q294.875 60.43229 294.15625 60.43229Q293.45312 60.43229 292.95312 61.010414Q292.46875 61.572914 292.46875 62.697914ZM301.09375 64.979164L301.25 65.90104Q300.79688 65.99479 300.45312 65.99479Q299.875 65.99479 299.5625 65.822914Q299.25 65.635414 299.10938 65.33854Q298.98438 65.041664 298.98438 64.08854L298.98438 60.510414L298.21875 60.510414L298.21875 59.697914L298.98438 59.697914L298.98438 58.15104L300.03125 57.52604L300.03125 59.697914L301.09375 59.697914L301.09375 60.510414L300.03125 60.510414L300.03125 64.15104Q300.03125 64.604164 300.07812 64.729164Q300.14062 64.854164 300.26562 64.93229Q300.39062 65.010414 300.625 65.010414Q300.8125 65.010414 301.09375 64.979164ZM301.40625 62.80729Q301.40625 61.072914 302.35938 60.24479Q303.15625 59.55729 304.3125 59.55729Q305.59375 59.55729 306.40625 60.40104Q307.23438 61.229164 307.23438 62.71354Q307.23438 63.916664 306.875 64.604164Q306.51562 65.291664 305.8125 65.68229Q305.125 66.05729 304.3125 66.05729Q303.01562 66.05729 302.20312 65.229164Q301.40625 64.385414 301.40625 62.80729ZM302.48438 62.80729Q302.48438 63.99479 303.0 64.58854Q303.53125 65.18229 304.3125 65.18229Q305.10938 65.18229 305.625 64.58854Q306.14062 63.99479 306.14062 62.77604Q306.14062 61.61979 305.60938 61.02604Q305.09375 60.43229 304.3125 60.43229Q303.53125 60.43229 303.0 61.02604Q302.48438 61.604164 302.48438 62.80729Z" fill-rule="nonzero"/><path fill="#fbbc04" d="M327.0 56.916668C327.0 56.364384 327.44772 55.916668 328.0 55.916668L338.0 55.916668C338.55228 55.916668 339.0 56.364384 339.0 56.916668L339.0 66.916664C339.0 67.46895 338.55228 67.916664 338.0 67.916664L328.0 67.916664C327.44772 67.916664 327.0 67.46895 327.0 66.916664Z" fill-rule="nonzero"/><path fill="#1a1a1a" d="M347.79688 65.916664L347.79688 57.322914L348.85938 57.322914L348.85938 62.229164L351.34375 59.697914L352.71875 59.697914L350.32812 61.99479L352.95312 65.916664L351.65625 65.916664L349.59375 62.729164L348.85938 63.447914L348.85938 65.916664L347.79688 65.916664ZM357.85938 65.15104Q357.26562 65.65104 356.71875 65.854164Q356.1875 66.05729 355.5625 66.05729Q354.53125 66.05729 353.98438 65.55729Q353.4375 65.05729 353.4375 64.27604Q353.4375 63.822914 353.64062 63.447914Q353.84375 63.05729 354.1875 62.83854Q354.53125 62.604164 354.95312 62.49479Q355.25 62.40104 355.89062 62.322914Q357.15625 62.18229 357.76562 61.96354Q357.76562 61.74479 357.76562 61.697914Q357.76562 61.041664 357.46875 60.77604Q357.0625 60.43229 356.26562 60.43229Q355.53125 60.43229 355.17188 60.697914Q354.8125 60.947914 354.64062 61.604164L353.60938 61.46354Q353.75 60.80729 354.07812 60.40104Q354.40625 59.99479 355.01562 59.77604Q355.625 59.55729 356.42188 59.55729Q357.21875 59.55729 357.71875 59.74479Q358.21875 59.93229 358.45312 60.21354Q358.6875 60.49479 358.78125 60.93229Q358.82812 61.197914 358.82812 61.90104L358.82812 63.30729Q358.82812 64.77604 358.89062 65.166664Q358.96875 65.55729 359.17188 65.916664L358.0625 65.916664Q357.90625 65.58854 357.85938 65.15104ZM357.76562 62.791664Q357.1875 63.02604 356.04688 63.197914Q355.39062 63.291664 355.125 63.416664Q354.85938 63.52604 354.70312 63.74479Q354.5625 63.96354 354.5625 64.24479Q354.5625 64.666664 354.875 64.947914Q355.20312 65.229164 355.8125 65.229164Q356.42188 65.229164 356.89062 64.96354Q357.375 64.697914 357.59375 64.229164Q357.76562 63.86979 357.76562 63.18229L357.76562 62.791664ZM361.9375 65.916664L360.03125 59.697914L361.125 59.697914L362.10938 63.291664L362.48438 64.61979Q362.51562 64.52604 362.8125 63.33854L363.79688 59.697914L364.875 59.697914L365.8125 63.30729L366.125 64.49479L366.48438 63.291664L367.54688 59.697914L368.57812 59.697914L366.625 65.916664L365.53125 65.916664L364.54688 62.18229L364.29688 61.135414L363.04688 65.916664L361.9375 65.916664ZM369.375 64.05729L370.40625 63.90104Q370.5 64.52604 370.89062 64.854164Q371.29688 65.18229 372.03125 65.18229Q372.75 65.18229 373.09375 64.90104Q373.45312 64.604164 373.45312 64.197914Q373.45312 63.83854 373.14062 63.635414Q372.92188 63.49479 372.0625 63.27604Q370.90625 62.979164 370.45312 62.77604Q370.01562 62.55729 369.78125 62.18229Q369.54688 61.80729 369.54688 61.33854Q369.54688 60.93229 369.73438 60.572914Q369.92188 60.21354 370.25 59.979164Q370.5 59.80729 370.92188 59.68229Q371.34375 59.55729 371.84375 59.55729Q372.5625 59.55729 373.10938 59.77604Q373.67188 59.979164 373.9375 60.33854Q374.20312 60.697914 374.29688 61.291664L373.26562 61.43229Q373.20312 60.96354 372.85938 60.697914Q372.53125 60.416664 371.90625 60.416664Q371.1875 60.416664 370.875 60.666664Q370.5625 60.90104 370.5625 61.229164Q370.5625 61.43229 370.6875 61.58854Q370.82812 61.760414 371.09375 61.86979Q371.25 61.93229 372.03125 62.135414Q373.15625 62.447914 373.59375 62.635414Q374.03125 62.822914 374.28125 63.18229Q374.53125 63.541664 374.53125 64.08854Q374.53125 64.61979 374.21875 65.08854Q373.92188 65.541664 373.34375 65.80729Q372.76562 66.05729 372.03125 66.05729Q370.8125 66.05729 370.17188 65.55729Q369.54688 65.041664 369.375 64.05729Z" fill-rule="nonzero"/><path fill="#757575" d="M19.70625 26.675Q19.70625 25.14375 20.471874 24.065624Q21.253124 22.9875 22.721874 22.9875Q24.065624 22.9875 24.940624 23.95625Q25.83125 24.909374 25.83125 26.784374Q25.83125 28.596874 24.940624 29.58125Q24.05 30.55 22.7375 30.55Q21.440624 30.55 20.565624 29.596874Q19.70625 28.628124 19.70625 26.675ZM22.76875 24.20625Q22.1125 24.20625 21.675 24.76875Q21.253124 25.33125 21.253124 26.846874Q21.253124 28.221874 21.690624 28.784374Q22.128124 29.346874 22.76875 29.346874Q23.440624 29.346874 23.8625 28.784374Q24.3 28.20625 24.3 26.70625Q24.3 25.315624 23.8625 24.76875Q23.425 24.20625 22.76875 24.20625ZM22.784374 38.08125L30.6125 22.9875L32.034374 22.9875L24.2375 38.08125L22.784374 38.08125ZM28.971874 34.190624Q28.971874 32.64375 29.7375 31.58125Q30.51875 30.503124 31.9875 30.503124Q33.33125 30.503124 34.20625 31.471874Q35.096874 32.425 35.096874 34.3Q35.096874 36.1125 34.20625 37.096874Q33.315624 38.08125 32.003124 38.08125Q30.70625 38.08125 29.83125 37.1125Q28.971874 36.128124 28.971874 34.190624ZM32.034374 31.721874Q31.378124 31.721874 30.940624 32.284374Q30.503124 32.846874 30.503124 34.3625Q30.503124 35.7375 30.940624 36.3Q31.378124 36.8625 32.034374 36.8625Q32.70625 36.8625 33.128124 36.3Q33.565624 35.7375 33.565624 34.221874Q33.565624 32.846874 33.128124 32.284374Q32.690624 31.721874 32.034374 31.721874ZM44.409374 37.55L44.409374 23.2375L46.315624 23.2375L46.315624 37.55L44.409374 37.55ZM50.096874 37.55L50.096874 23.2375L55.4875 23.2375Q56.925 23.2375 57.675 23.3625Q58.721874 23.55 59.440624 24.05Q60.159374 24.534374 60.58125 25.425Q61.01875 26.315624 61.01875 27.378124Q61.01875 29.20625 59.846874 30.471874Q58.690624 31.721874 55.659374 31.721874L51.9875 31.721874L51.9875 37.55L50.096874 37.55ZM51.9875 30.034374L55.690624 30.034374Q57.51875 30.034374 58.284374 29.3625Q59.065624 28.675 59.065624 27.425Q59.065624 26.534374 58.6125 25.89375Q58.159374 25.253124 57.425 25.05Q56.940624 24.925 55.64375 24.925L51.9875 24.925L51.9875 30.034374ZM73.31563 32.534374L75.20625 33.003124Q74.6125 35.346874 73.06563 36.58125Q71.51875 37.8 69.26875 37.8Q66.95625 37.8 65.50313 36.8625Q64.06563 35.909374 63.3 34.128124Q62.55 32.33125 62.55 30.284374Q62.55 28.05 63.39375 26.39375Q64.25313 24.721874 65.83125 23.8625Q67.40938 22.9875 69.3 22.9875Q71.45625 22.9875 72.90938 24.08125Q74.37813 25.175 74.95625 27.159374L73.09688 27.596874Q72.59688 26.034374 71.64375 25.33125Q70.70625 24.6125 69.26875 24.6125Q67.6125 24.6125 66.50313 25.409374Q65.39375 26.190624 64.94063 27.534374Q64.50313 28.8625 64.50313 30.26875Q64.50313 32.096874 65.03438 33.471874Q65.56563 34.83125 66.69063 35.503124Q67.81563 36.175 69.1125 36.175Q70.70625 36.175 71.81563 35.253124Q72.925 34.33125 73.31563 32.534374Z" fill-rule="nonzero"/></svg>